<svg width="35" height="35" viewBox="0 0 35 35" fill="none" xmlns="http://www.w3.org/2000/svg">
<path d="M17.5001 2.91667C9.45008 2.91667 2.91675 9.45 2.91675 17.5C2.91675 25.55 9.45008 32.0833 17.5001 32.0833C25.5501 32.0833 32.0834 25.55 32.0834 17.5C32.0834 9.45 25.5501 2.91667 17.5001 2.91667ZM17.5001 29.1667C11.0688 29.1667 5.83341 23.9313 5.83341 17.5C5.83341 11.0688 11.0688 5.83334 17.5001 5.83334C23.9313 5.83334 29.1667 11.0688 29.1667 17.5C29.1667 23.9313 23.9313 29.1667 17.5001 29.1667ZM24.1938 11.0542L14.5834 20.6646L10.8063 16.9021L8.75008 18.9583L14.5834 24.7917L26.2501 13.125L24.1938 11.0542Z" fill="#44A783"/>
</svg>
