<svg width="35" height="35" viewBox="0 0 35 35" fill="none" xmlns="http://www.w3.org/2000/svg">
<path d="M21.2772 11.6667L17.5001 15.4438L13.723 11.6667L11.6667 13.7229L15.4438 17.5L11.6667 21.2771L13.723 23.3333L17.5001 19.5563L21.2772 23.3333L23.3334 21.2771L19.5563 17.5L23.3334 13.7229L21.2772 11.6667ZM17.5001 2.91667C9.4355 2.91667 2.91675 9.43542 2.91675 17.5C2.91675 25.5646 9.4355 32.0833 17.5001 32.0833C25.5647 32.0833 32.0834 25.5646 32.0834 17.5C32.0834 9.43542 25.5647 2.91667 17.5001 2.91667ZM17.5001 29.1667C11.0688 29.1667 5.83341 23.9313 5.83341 17.5C5.83341 11.0688 11.0688 5.83334 17.5001 5.83334C23.9313 5.83334 29.1667 11.0688 29.1667 17.5C29.1667 23.9313 23.9313 29.1667 17.5001 29.1667Z" fill="#67697C"/>
</svg>
