<svg width="306" height="306" viewBox="0 0 306 306" fill="none" xmlns="http://www.w3.org/2000/svg">
<path d="M268.858 93.8624C269.023 92.8779 268.971 91.869 268.704 90.9069C268.438 89.9448 267.963 89.0529 267.314 88.2942C266.665 87.5355 265.858 86.9285 264.948 86.5159C264.039 86.1033 263.051 85.8953 262.052 85.9064C261.677 85.9078 261.302 85.9405 260.932 86.0044C260.142 84.6844 258.981 83.6249 257.595 82.9568C256.209 82.2887 254.658 82.0412 253.133 82.245C251.607 82.4487 250.175 83.0948 249.013 84.1033C247.851 85.1118 247.01 86.4386 246.593 87.9199C246.101 87.7695 245.59 87.6931 245.075 87.6935C243.718 87.6935 242.417 88.2325 241.458 89.192C240.498 90.1515 239.959 91.4529 239.959 92.8098C239.96 93.1719 239.999 93.5329 240.075 93.8869L268.858 93.8624Z" fill="#F0F0F0"/>
<path d="M88.74 66.6223C88.8415 66.0155 88.8947 65.4016 88.8991 64.7863C88.8991 61.6391 87.6489 58.6207 85.4235 56.3953C83.198 54.1699 80.1797 52.9196 77.0325 52.9196C76.3883 52.924 75.7455 52.9813 75.1108 53.091C73.7535 50.8234 71.7618 49.0029 69.3817 47.8542C67.0016 46.7055 64.3373 46.279 61.7175 46.6272C59.0977 46.9754 56.6373 48.0831 54.6399 49.8137C52.6425 51.5442 51.1956 53.8218 50.4778 56.3652C49.0099 55.9052 47.447 55.8387 45.9454 56.1726C44.4439 56.5064 43.0563 57.2288 41.9217 58.2674C40.787 59.306 39.945 60.6244 39.48 62.0907C39.015 63.5569 38.9433 65.1196 39.272 66.6223H88.74Z" fill="#F0F0F0"/>
<path d="M306 234.029H0V234.182H306V234.029Z" fill="#EBEBEB"/>
<path d="M275.339 243.876H255.069V244.029H275.339V243.876Z" fill="#EBEBEB"/>
<path d="M202.707 245.541H197.388V245.694H202.707V245.541Z" fill="#EBEBEB"/>
<path d="M254.457 238.197H242.713V238.35H254.457V238.197Z" fill="#EBEBEB"/>
<path d="M58.5378 239.225H32.1055V239.378H58.5378V239.225Z" fill="#EBEBEB"/>
<path d="M67.8647 239.225H63.9907V239.378H67.8647V239.225Z" fill="#EBEBEB"/>
<path d="M137.792 241.807H80.4596V241.96H137.792V241.807Z" fill="#EBEBEB"/>
<path d="M145.044 206.734H26.8729C25.9472 206.732 25.0599 206.363 24.4059 205.708C23.7519 205.053 23.3845 204.165 23.3845 203.239V37.1239C23.3926 36.2035 23.7635 35.3234 24.4166 34.6748C25.0698 34.0263 25.9525 33.6616 26.8729 33.66H145.044C145.971 33.66 146.86 34.0282 147.515 34.6835C148.17 35.3389 148.539 36.2277 148.539 37.1545V203.239C148.539 204.166 148.17 205.055 147.515 205.71C146.86 206.365 145.971 206.734 145.044 206.734ZM26.8729 33.7824C25.9878 33.784 25.1394 34.1368 24.5141 34.7633C23.8887 35.3898 23.5375 36.2388 23.5375 37.1239V203.239C23.5375 204.124 23.8887 204.973 24.5141 205.6C25.1394 206.226 25.9878 206.579 26.8729 206.581H145.044C145.93 206.579 146.779 206.226 147.405 205.6C148.031 204.974 148.384 204.125 148.386 203.239V37.1239C148.384 36.2382 148.031 35.3892 147.405 34.7629C146.779 34.1366 145.93 33.784 145.044 33.7824H26.8729Z" fill="#EBEBEB"/>
<path d="M277.426 206.734H159.249C158.322 206.732 157.434 206.363 156.779 205.708C156.124 205.053 155.756 204.165 155.754 203.239V37.1239C155.764 36.2029 156.136 35.3229 156.79 34.6745C157.444 34.026 158.327 33.6616 159.249 33.66H277.426C278.345 33.6632 279.226 34.0286 279.878 34.677C280.53 35.3254 280.9 36.2045 280.908 37.1239V203.239C280.908 204.164 280.542 205.051 279.889 205.706C279.236 206.361 278.35 206.73 277.426 206.734ZM159.249 33.7824C158.363 33.784 157.514 34.1366 156.887 34.7629C156.261 35.3892 155.909 36.2382 155.907 37.1239V203.239C155.909 204.125 156.261 204.974 156.887 205.6C157.514 206.226 158.363 206.579 159.249 206.581H277.426C278.311 206.579 279.16 206.226 279.787 205.6C280.413 204.974 280.766 204.125 280.767 203.239V37.1239C280.766 36.2382 280.413 35.3892 279.787 34.7629C279.16 34.1366 278.311 33.784 277.426 33.7824H159.249Z" fill="#EBEBEB"/>
<path d="M23.2009 216.318V175.632H42.7972V164.506H52.1791V131.806L64.2967 119.689H88.8991V154.726H122.651V161.648H146.513V152.553H172.149V145.699H192.168V105.111H227.609V130.974H235.767V140.344H254.733V155.711H264.867L272.664 163.508V171.44H280.431V216.318H23.2009Z" fill="#F0F0F0"/>
<path d="M47.0689 175.632H43.1338L42.7972 175.399V175.632H23.2009V216.318H47.0689V175.632Z" fill="#E6E6E6"/>
<path d="M146.856 155.515V161.648H145.889L144.86 168.208L147.767 216.318H180.099V152.553H172.492H147.315L146.856 155.515Z" fill="#E6E6E6"/>
<path d="M222.125 140.344V216.318H280.767V171.44H273.001V163.508L265.204 155.711H255.069V140.344H237.854H236.103H222.125Z" fill="#E6E6E6"/>
<path d="M265.241 159.836H261.697V163.38H265.241V159.836Z" fill="white"/>
<path d="M258.98 159.836H255.437V163.38H258.98V159.836Z" fill="white"/>
<path d="M265.241 166.44H261.697V169.983H265.241V166.44Z" fill="white"/>
<path d="M258.98 166.44H255.437V169.983H258.98V166.44Z" fill="white"/>
<path d="M245.889 143.202H242.346V146.745H245.889V143.202Z" fill="white"/>
<path d="M239.629 143.202H236.085V146.745H239.629V143.202Z" fill="white"/>
<path d="M42.9563 181.366H39.4128V184.91H42.9563V181.366Z" fill="white"/>
<path d="M36.6955 181.366H33.152V184.91H36.6955V181.366Z" fill="white"/>
<path d="M176.017 166.513V162.969H172.474V166.513H176.017Z" fill="white"/>
<path d="M176.017 160.252V156.709H172.474V160.252H176.017Z" fill="white"/>
<path d="M151.813 261.667C217.347 261.667 270.473 258.565 270.473 254.739C270.473 250.913 217.347 247.811 151.813 247.811C86.2782 247.811 33.152 250.913 33.152 254.739C33.152 258.565 86.2782 261.667 151.813 261.667Z" fill="#F5F5F5"/>
<path d="M271.44 224.567H238.007V252.217H271.44V224.567Z" fill="#6EA4F4"/>
<path opacity="0.3" d="M271.44 224.567H238.007V252.217H271.44V224.567Z" fill="white"/>
<path d="M246.25 224.567H220.338V252.217H246.25V224.567Z" fill="#6EA4F4"/>
<path opacity="0.1" d="M246.25 224.567H220.338V252.217H246.25V224.567Z" fill="white"/>
<path opacity="0.3" d="M236.96 224.567H229.629V233.172H236.96V224.567Z" fill="white"/>
<path opacity="0.1" d="M264.317 224.567H256.985V233.172H264.317V224.567Z" fill="black"/>
<path d="M257.383 240.84H256.416C256.4 240.559 256.4 240.277 256.416 239.996C256.416 239.555 256.752 238.704 257.364 239.09C257.554 239.206 257.774 238.937 257.585 238.821C257.448 238.738 257.292 238.691 257.132 238.683C256.972 238.676 256.813 238.708 256.668 238.777C256.524 238.846 256.399 238.95 256.305 239.08C256.211 239.209 256.15 239.36 256.128 239.518C256.046 239.95 256.026 240.391 256.067 240.828H255.51C255.29 240.828 255.228 241.165 255.455 241.171H256.067C256.067 241.709 256.067 242.248 256.067 242.787C256.067 243.013 256.416 242.97 256.416 242.75C256.416 242.223 256.416 241.703 256.416 241.177H257.322C257.548 241.189 257.609 240.846 257.383 240.84Z" fill="white"/>
<path d="M258.986 240.081C258.962 240.076 258.937 240.076 258.913 240.081C257.328 239.965 257.579 242.56 259.096 242.529C259.421 242.483 259.716 242.317 259.925 242.065C260.134 241.813 260.243 241.492 260.229 241.165C260.233 241.007 260.203 240.85 260.14 240.706C260.077 240.561 259.983 240.432 259.864 240.329C259.745 240.225 259.605 240.149 259.453 240.106C259.301 240.064 259.142 240.055 258.986 240.081ZM259.225 242.156C258.08 242.456 257.713 240.32 258.888 240.449C258.924 240.459 258.962 240.459 258.998 240.449C260.1 240.283 260.1 241.924 259.225 242.156Z" fill="white"/>
<path d="M262.768 240.724C262.297 239.194 259.923 240.449 260.602 241.844C260.775 242.118 261.042 242.319 261.353 242.41C261.664 242.501 261.997 242.476 262.291 242.34C262.438 242.283 262.571 242.194 262.68 242.08C262.788 241.965 262.87 241.828 262.919 241.678C262.969 241.528 262.984 241.369 262.964 241.213C262.944 241.056 262.89 240.906 262.805 240.773L262.768 240.724ZM260.877 241.599C260.553 240.669 262.101 239.763 262.444 240.865C262.448 240.884 262.456 240.902 262.467 240.918C262.479 240.934 262.494 240.947 262.511 240.957C263.111 242.028 261.208 242.566 260.877 241.599Z" fill="white"/>
<path d="M265.424 242.413C265.32 241.006 265.222 239.598 265.118 238.197C265.118 237.97 264.757 238.013 264.77 238.233L264.898 240.008C264.712 239.948 264.516 239.931 264.322 239.959C264.129 239.986 263.945 240.058 263.784 240.168C263.623 240.278 263.489 240.423 263.392 240.593C263.296 240.762 263.239 240.952 263.227 241.146C263.178 242.095 264.28 242.419 265.063 242.315V242.45C265.094 242.67 265.443 242.634 265.424 242.413ZM263.588 241.299C263.578 241.146 263.606 240.993 263.668 240.853C263.731 240.713 263.826 240.591 263.947 240.496C264.067 240.401 264.209 240.338 264.36 240.31C264.511 240.283 264.666 240.292 264.812 240.339C264.847 240.348 264.882 240.348 264.916 240.339C264.959 240.877 264.996 241.416 265.039 241.96C264.506 242.034 263.668 241.924 263.576 241.299H263.588Z" fill="white"/>
<path d="M152.982 58.4521H70.3922C65.3223 58.4521 61.2122 62.5621 61.2122 67.6321V239.935C61.2122 245.005 65.3223 249.115 70.3922 249.115H152.982C158.052 249.115 162.162 245.005 162.162 239.935V67.6321C162.162 62.5621 158.052 58.4521 152.982 58.4521Z" fill="#263238"/>
<path d="M155.638 71.1634H67.7423V224.506H155.638V71.1634Z" fill="#6EA4F4"/>
<path opacity="0.3" d="M155.638 209.304H67.7423V224.5H155.638V209.304Z" fill="white"/>
<path opacity="0.1" d="M155.638 134.261C133.294 156.482 91.9163 198.049 67.7423 222.389V224.531H116.855L155.638 185.754V134.261Z" fill="white"/>
<path opacity="0.1" d="M67.7423 148.275L144.854 71.1634H108.795C99.248 80.6371 82.9382 96.9775 67.7423 112.229V148.275Z" fill="white"/>
<path opacity="0.1" d="M67.7423 180.509L155.638 92.614V73.8072L67.7423 161.697V180.509Z" fill="white"/>
<path opacity="0.2" d="M155.638 71.1634H67.7423V78.079H155.638V71.1634Z" fill="black"/>
<path d="M112.659 240.939C115.926 240.409 118.144 237.331 117.613 234.065C117.083 230.798 114.006 228.58 110.739 229.111C107.473 229.641 105.255 232.718 105.785 235.985C106.315 239.251 109.393 241.469 112.659 240.939Z" fill="#6EA4F4"/>
<g opacity="0.6">
<path opacity="0.6" d="M77.2466 76.2062H78.5747V74.4314H77.2466V76.2062Z" fill="white"/>
<path opacity="0.6" d="M75.0802 76.2062H76.4082V73.8439H75.0802V76.2062Z" fill="white"/>
<path opacity="0.6" d="M72.9137 76.2062H74.2417V73.2503H72.9137V76.2062Z" fill="white"/>
<path opacity="0.6" d="M70.7472 76.2062H72.0752V72.6566H70.7472V76.2062Z" fill="white"/>
</g>
<path opacity="0.6" d="M146.311 73.7827H145.521V75.5575H146.311V73.7827Z" fill="white"/>
<path opacity="0.6" d="M146.855 76.2062H153.141V73.1401H146.855V76.2062Z" fill="white"/>
<path opacity="0.3" d="M162.168 112.847L143.728 115.472L148.545 149.732L162.168 148.349V112.847Z" fill="#263238"/>
<path opacity="0.7" d="M111.942 160.148C130.687 160.148 145.883 144.952 145.883 126.206C145.883 107.461 130.687 92.2646 111.942 92.2646C93.1961 92.2646 78 107.461 78 126.206C78 144.952 93.1961 160.148 111.942 160.148Z" fill="white"/>
<path d="M124.114 105.453C124.114 105.453 131.048 115.71 134.94 116.127C138.833 116.543 154.059 103.446 154.059 103.446L156.642 105.68C156.642 105.68 142.156 121.592 136.109 122.522C130.063 123.452 118.569 111.469 118.569 111.469L124.114 105.453Z" fill="#E4897B"/>
<path d="M122.462 106.218C122.462 106.218 124.91 103.819 128.276 107.987C131.642 112.155 133.025 113.005 133.025 113.005L124.457 121.371C124.457 121.371 119.42 108.446 122.462 106.218Z" fill="#6EA4F4"/>
<path d="M152.854 102.497C152.854 102.497 153.154 98.6478 154.047 98.403C154.941 98.1582 154.622 101.004 154.622 101.004C154.622 101.004 159.335 98.1276 160.283 98.3846C161.232 98.6417 161.079 100.502 160.895 101.004C159.457 105.288 154.316 107.063 154.316 107.063L152.242 105.104L152.854 102.497Z" fill="#E4897B"/>
<path d="M117.517 95.2696C117.517 95.2696 122.248 103.152 120.797 108.122C119.347 113.091 111.886 108.623 111.886 108.623L111.978 98.8314L117.517 95.2696Z" fill="#263238"/>
<path d="M104.83 81.6831C104.83 81.6831 97.8349 85.2266 100.583 97.6931C105.185 118.593 111.978 109.933 111.978 109.933C111.978 109.933 111.678 101.696 108.918 97.6931C106.158 93.6906 106.733 87.9806 106.733 87.9806L104.83 81.6831Z" fill="#263238"/>
<path d="M125.118 136.898L104.145 138.734C103.941 133.535 103.193 128.372 101.911 123.33C101.409 121.322 100.785 119.076 99.9769 116.488C99.5424 115.098 99.065 113.611 98.5326 112.014C98.1348 110.79 97.7003 109.511 97.2229 108.146C100.072 107.235 102.982 106.53 105.932 106.035C109.041 105.478 112.187 105.146 115.344 105.043C119.426 105.006 124.114 105.465 124.114 105.465C124.114 105.465 124.781 105.625 125.204 109.951C125.583 113.991 125.956 122.124 125.118 136.898Z" fill="#6EA4F4"/>
<path opacity="0.2" d="M125.118 136.898L104.145 138.734C103.941 133.535 103.193 128.372 101.911 123.33C101.409 121.322 100.785 119.076 99.9769 116.488C99.5424 115.098 99.065 113.611 98.5326 112.014C98.1348 110.79 97.7003 109.511 97.2229 108.146C100.072 107.235 102.982 106.53 105.932 106.035C109.041 105.478 112.187 105.146 115.344 105.043C119.426 105.006 124.114 105.465 124.114 105.465C124.114 105.465 124.781 105.625 125.204 109.951C125.583 113.991 125.956 122.124 125.118 136.898Z" fill="white"/>
<path opacity="0.2" d="M104.053 137.136C107.413 135.827 118.49 130.404 118.49 130.404L103.802 133.722C103.869 134.835 103.961 135.961 104.053 137.136Z" fill="black"/>
<path d="M113.618 109.658C108.447 108.997 106.886 106.794 106.886 106.794C110.167 103.697 107.443 98.3357 107.443 98.3357L113.661 99.4985C113.519 100.365 113.439 101.24 113.423 102.118C113.374 105.894 115.081 105.931 115.081 105.931C116.177 107.975 113.618 109.658 113.618 109.658Z" fill="#E4897B"/>
<path opacity="0.2" d="M113.667 99.4985C113.525 100.365 113.445 101.24 113.429 102.118C109.224 102.118 107.449 98.3357 107.449 98.3357L113.667 99.4985Z" fill="black"/>
<path d="M110.877 82.0809C116.287 81.7811 117.511 84.3759 118.221 89.9268C119.102 96.8669 117.853 102.124 111.011 101.01C103.502 99.7861 101.397 87.8949 105.913 83.3478C106.972 82.2707 109.157 82.1666 110.877 82.0809Z" fill="#E4897B"/>
<path d="M114.726 90.6306C115.203 91.4142 115.772 92.1375 116.421 92.7848C116.276 93.0173 116.07 93.205 115.825 93.3271C115.579 93.4492 115.305 93.5009 115.032 93.4764L114.726 90.6306Z" fill="#DE5753"/>
<path d="M111.452 90.0063C111.68 89.8906 111.865 89.7038 111.978 89.4739L111.042 89.9268C110.905 90.0062 110.797 90.1259 110.731 90.2694C110.665 90.413 110.646 90.5733 110.675 90.7285C110.705 91.1753 110.975 91.5119 111.287 91.4935C111.599 91.4751 111.795 91.0896 111.764 90.6489C111.749 90.4019 111.637 90.1709 111.452 90.0063Z" fill="#263238"/>
<path d="M116.703 89.5106C116.931 89.3949 117.116 89.2081 117.229 88.9782L116.299 89.4311C116.162 89.512 116.053 89.6326 115.986 89.7768C115.92 89.9211 115.899 90.0823 115.926 90.2389C115.962 90.6857 116.232 91.0223 116.538 90.9978C116.844 90.9733 117.046 90.6 117.009 90.1532C117.005 90.0308 116.976 89.9105 116.923 89.7999C116.87 89.6893 116.795 89.5908 116.703 89.5106Z" fill="#263238"/>
<path d="M111.446 87.5094C111.015 87.4819 110.584 87.5531 110.186 87.7175C109.787 87.8819 109.431 88.1352 109.145 88.458" stroke="#263238" stroke-width="0.707336" stroke-linecap="round" stroke-linejoin="round"/>
<path d="M114.732 87.2891C115.065 87.1013 115.436 86.9911 115.818 86.9668C116.199 86.9424 116.581 87.0045 116.935 87.1483" stroke="#263238" stroke-width="0.707336" stroke-linecap="round" stroke-linejoin="round"/>
<path d="M102.101 107.363C102.101 107.363 108.172 112.289 113.82 112.21C119.469 112.13 121.458 105.778 121.458 105.778C121.458 105.778 112.694 103.183 102.101 107.363Z" fill="#E4897B"/>
<path d="M93.1715 119.664C93.1715 119.664 91.262 130.925 91.4885 134.132C91.7149 137.338 96.562 137.436 99.2915 137.112C102.431 136.739 118.802 130.264 118.802 130.264L118.043 127.026C118.043 127.026 105.228 130.515 99.7688 131.127C99.5138 131.153 99.2561 131.12 99.0155 131.032C98.7749 130.943 98.5578 130.8 98.3807 130.615C98.2035 130.43 98.0711 130.206 97.9935 129.962C97.9159 129.717 97.8951 129.459 97.9328 129.205L99.1997 120.845L93.1715 119.664Z" fill="#E4897B"/>
<path d="M97.2229 108.122C97.2229 108.122 100.571 107.381 101.219 112.699C101.612 115.92 101.191 119.188 99.9953 122.204L91.513 120.674C91.513 120.674 93.4653 108.397 97.2229 108.122Z" fill="#6EA4F4"/>
<path d="M122.223 123.783C122.014 123.656 121.767 123.606 121.525 123.642C120.522 123.899 117.474 126.916 117.297 127.314L118.08 130.172C118.08 130.172 119.683 131.029 120.461 130.784C121.238 130.539 125.179 127.638 125.185 126.941C125.19 126.902 125.19 126.863 125.185 126.824C125.326 126.72 125.442 126.635 125.522 126.586C126.189 126.169 123.723 124.327 122.223 123.783Z" fill="#E4897B"/>
<path d="M110.558 82.0993C110.558 82.0993 111.25 88.8803 105.595 89.1251C99.9402 89.3699 104.665 83.0479 104.665 83.0479L110.558 82.0993Z" fill="#263238"/>
<path d="M109.347 80.0063C100.05 80.3 100.821 93.8987 105.846 97.6931C105.846 97.6931 103.398 94.4005 104.818 91.5363C104.818 91.5363 106.654 87.1055 106.042 83.6966C107.479 83.0729 109.005 82.6785 110.565 82.5277C111.611 83.8007 114.237 87.6685 117.676 87.5889C117.875 88.1886 118.028 88.8023 118.135 89.4249C118.135 89.4249 118.655 79.7186 109.347 80.0063Z" fill="#263238"/>
<path d="M116.134 96.0835C115.608 96.3633 115.023 96.5147 114.427 96.5254C113.832 96.536 113.242 96.4056 112.707 96.1447C112.691 96.1364 112.678 96.1252 112.668 96.1118C112.657 96.0983 112.649 96.0828 112.645 96.0663C112.64 96.0497 112.639 96.0325 112.641 96.0154C112.643 95.9984 112.649 95.982 112.658 95.9672C112.665 95.9526 112.675 95.9396 112.687 95.9291C112.699 95.9185 112.714 95.9107 112.729 95.9061C112.745 95.9015 112.761 95.9002 112.777 95.9023C112.793 95.9044 112.809 95.9098 112.823 95.9183C113.322 96.1569 113.869 96.2752 114.422 96.2635C114.975 96.2518 115.517 96.1105 116.005 95.8509C116.035 95.8354 116.069 95.8318 116.101 95.8409C116.133 95.85 116.16 95.8712 116.177 95.8999C116.192 95.9283 116.195 95.9616 116.186 95.9926C116.177 96.0235 116.156 96.0496 116.128 96.0651L116.134 96.0835Z" fill="#263238"/>
<path d="M105.766 92.6318C105.68 92.0088 105.35 91.4456 104.848 91.0658C104.347 90.686 103.715 90.5207 103.092 90.6061C101.427 90.8754 100.815 94.3638 105.032 94.9636C105.632 95.0492 105.938 94.4434 105.766 92.6318Z" fill="#E4897B"/>
<path d="M105.136 117.363L110.766 116.567C110.766 116.567 112.602 122.571 109.261 123.213C105.607 123.923 105.136 117.363 105.136 117.363Z" fill="#6EA4F4"/>
<path d="M126.348 149.713C126.066 146.935 125.626 143.152 125.063 140.178L125.118 136.898L104.145 138.734L103.955 141.794C103.465 142.7 101.323 147.186 100.356 158.159C104.718 159.741 109.358 160.413 113.989 160.133C118.62 159.853 123.145 158.627 127.284 156.531L126.348 149.713Z" fill="#263238"/>
<path d="M180.136 135.142L169.469 137.847C168.645 137.337 167.667 137.138 166.709 137.284C165.197 137.565 161.415 140.656 161.562 141.109C161.709 141.562 166.268 143.661 166.923 143.49C169.273 142.878 171.697 140.142 171.697 140.142L181.232 138.177L180.136 135.142Z" fill="#E4897B"/>
<path d="M206.856 96.7817C204.69 99.0889 198.949 98.8931 198.949 98.8931C198.949 98.8931 197.058 99.0583 196.587 97.4549C198.661 96.9408 198.98 95.4475 199.304 94.1562C199.464 93.3583 199.464 92.5367 199.304 91.7388C199.237 91.2888 199.143 90.8433 199.022 90.4047L205.687 84.609C205.069 88.128 204.408 94.4561 206.856 96.7817Z" fill="#E4897B"/>
<path opacity="0.2" d="M204.353 88.0668C204.408 92.3508 201.011 93.7829 199.322 94.1562C199.482 93.3583 199.482 92.5367 199.322 91.7388L204.353 88.0668Z" fill="black"/>
<path d="M204.904 89.0093C204.256 90.156 203.249 91.058 202.038 91.5766C200.827 92.0952 199.48 92.2016 198.202 91.8796C196.541 91.4984 195.089 90.4954 194.145 89.0766C194.009 88.8808 193.887 88.6763 193.778 88.4646C191.727 84.56 190.62 77.5404 194.683 74.5538C195.577 73.8834 196.628 73.4539 197.735 73.3066C198.843 73.1593 199.97 73.2991 201.007 73.7126C202.045 74.1262 202.959 74.7995 203.662 75.6681C204.365 76.5367 204.832 77.5713 205.02 78.6726C205.901 83.3544 206.648 86.0656 204.904 89.0093Z" fill="#E4897B"/>
<path d="M198.062 82.0386C198.126 82.1813 198.134 82.3433 198.082 82.4913C198.031 82.6393 197.925 82.762 197.786 82.8342C197.541 82.8954 197.266 82.6384 197.174 82.265C197.082 81.8917 197.205 81.5306 197.45 81.4694C197.694 81.4082 197.964 81.6592 198.062 82.0386Z" fill="#263238"/>
<path d="M193.931 82.9077C194.053 83.2749 193.9 83.6421 193.661 83.7033C193.423 83.7645 193.135 83.5074 193.049 83.1341C192.964 82.7608 193.08 82.3997 193.325 82.3385C193.569 82.2773 193.839 82.5527 193.931 82.9077Z" fill="#263238"/>
<path d="M195.418 83.0239C195.3 84.254 195.01 85.4614 194.555 86.6102C195.167 86.855 196.024 86.4695 196.605 86.1512L195.418 83.0239Z" fill="#DE5753"/>
<path d="M199.286 80.0313C199.247 80.0464 199.205 80.0509 199.164 80.0445C199.123 80.038 199.085 80.0208 199.053 79.9945C198.834 79.8107 198.575 79.6807 198.296 79.6148C198.018 79.549 197.728 79.549 197.45 79.6151C197.421 79.6276 197.389 79.6341 197.358 79.6339C197.326 79.6337 197.295 79.6269 197.267 79.614C197.238 79.6012 197.212 79.5824 197.191 79.559C197.17 79.5356 197.154 79.508 197.144 79.4781C197.134 79.4482 197.131 79.4165 197.134 79.3852C197.137 79.3538 197.147 79.3235 197.162 79.296C197.178 79.2686 197.199 79.2447 197.224 79.2259C197.249 79.2071 197.278 79.1937 197.309 79.1867C197.658 79.0977 198.024 79.0923 198.376 79.171C198.728 79.2497 199.056 79.4102 199.335 79.6396C199.358 79.6576 199.378 79.6801 199.393 79.7059C199.408 79.7317 199.418 79.7602 199.422 79.7898C199.426 79.8194 199.424 79.8494 199.417 79.8783C199.409 79.9071 199.396 79.9341 199.377 79.9578C199.351 79.9872 199.32 80.012 199.286 80.0313Z" fill="#263238"/>
<path d="M197.48 88.0056C198.037 87.9461 198.572 87.7554 199.042 87.449C199.511 87.1426 199.901 86.7293 200.179 86.243C200.186 86.229 200.191 86.2137 200.192 86.198C200.193 86.1823 200.191 86.1666 200.186 86.1517C200.18 86.1368 200.172 86.1231 200.162 86.1115C200.151 86.0998 200.138 86.0905 200.124 86.0839C200.111 86.0766 200.096 86.0721 200.081 86.0706C200.066 86.0691 200.051 86.0707 200.037 86.0753C200.023 86.0799 200.009 86.0873 199.998 86.0973C199.987 86.1072 199.977 86.1193 199.971 86.1329C199.707 86.5801 199.342 86.9596 198.905 87.2411C198.468 87.5227 197.972 87.6985 197.456 87.7547C197.44 87.7554 197.424 87.7594 197.41 87.7664C197.396 87.7733 197.383 87.7831 197.373 87.7952C197.363 87.8072 197.355 87.8212 197.35 87.8364C197.345 87.8515 197.344 87.8674 197.346 87.8832C197.347 87.8985 197.352 87.9134 197.359 87.9269C197.366 87.9404 197.376 87.9524 197.388 87.9621C197.4 87.9717 197.414 87.9789 197.429 87.9833C197.443 87.9876 197.459 87.9889 197.474 87.9872L197.48 88.0056Z" fill="#263238"/>
<path d="M191.85 81.8122C191.814 81.8418 191.768 81.857 191.721 81.855C191.692 81.8499 191.664 81.839 191.639 81.8228C191.614 81.8067 191.593 81.7857 191.577 81.7612C191.56 81.7366 191.549 81.7089 191.543 81.6798C191.537 81.6508 191.538 81.6208 191.544 81.5919C191.61 81.236 191.76 80.9011 191.981 80.6148C192.203 80.3284 192.489 80.099 192.817 79.9456C192.844 79.9347 192.874 79.9294 192.904 79.9299C192.934 79.9305 192.963 79.9369 192.99 79.9489C193.018 79.9608 193.042 79.978 193.063 79.9995C193.083 80.021 193.1 80.0463 193.111 80.0741C193.121 80.1018 193.127 80.1314 193.126 80.1612C193.126 80.191 193.119 80.2203 193.107 80.2476C193.095 80.2749 193.078 80.2996 193.057 80.3202C193.035 80.3408 193.01 80.357 192.982 80.3679C192.726 80.4961 192.504 80.6825 192.333 80.912C192.162 81.1415 192.046 81.4079 191.997 81.6898C191.982 81.7192 191.961 81.7453 191.936 81.7663C191.911 81.7874 191.881 81.803 191.85 81.8122Z" fill="#263238"/>
<path d="M207.982 81.9468C207.731 83.1218 207.028 84.1507 206.024 84.811C204.683 85.6678 203.576 84.5845 203.527 83.079C203.527 81.7387 204.188 79.6335 205.724 79.407C207.26 79.1806 208.264 80.5025 207.982 81.9468Z" fill="#E4897B"/>
<path d="M186.905 100.417C184.612 102.601 182.925 105.342 182.009 108.373C180.858 112.045 179.781 120.693 179.255 125.387C179.144 126.293 178.745 127.14 178.115 127.801C177.486 128.462 176.66 128.903 175.76 129.059L162.872 131.305L163.9 137.859L180.228 136.286C181.975 136.118 183.622 135.39 184.923 134.212C186.224 133.033 187.11 131.466 187.449 129.744C188.447 124.695 189.781 117.375 190.387 111.58C191.415 101.733 190.332 99.401 186.905 100.417Z" fill="#6EA4F4"/>
<path opacity="0.1" d="M186.905 100.417C184.612 102.601 182.925 105.342 182.009 108.373C180.858 112.045 179.781 120.693 179.255 125.387C179.144 126.293 178.745 127.14 178.115 127.801C177.486 128.462 176.66 128.903 175.76 129.059L162.872 131.305L163.9 137.859L180.228 136.286C181.975 136.118 183.622 135.39 184.923 134.212C186.224 133.033 187.11 131.466 187.449 129.744C188.447 124.695 189.781 117.375 190.387 111.58C191.415 101.733 190.332 99.401 186.905 100.417Z" fill="black"/>
<path d="M177.853 246.085L173.006 244.892L175.766 234.506L180.613 235.7L177.853 246.085Z" fill="#E4897B"/>
<path d="M173.055 243.215L178.563 245.198C178.653 245.231 178.73 245.294 178.779 245.376C178.828 245.459 178.847 245.556 178.833 245.651L178.276 250.002C178.25 250.189 178.151 250.358 178.001 250.473C177.851 250.588 177.661 250.638 177.474 250.614C177.421 250.606 177.37 250.592 177.321 250.571C175.552 249.904 174.298 249.347 172.064 248.521C170.687 248.019 166.482 246.685 164.585 245.981C162.688 245.277 163.116 243.331 163.973 243.435C167.737 243.937 170.742 243.833 172.217 243.233C172.484 243.122 172.783 243.116 173.055 243.215Z" fill="#2E353A"/>
<path d="M171.268 243.466C170.951 243.382 170.674 243.189 170.485 242.921C170.428 242.821 170.398 242.709 170.398 242.594C170.398 242.479 170.428 242.366 170.485 242.266C170.506 242.203 170.545 242.148 170.597 242.106C170.649 242.065 170.712 242.04 170.779 242.034C171.391 241.954 172.511 243.38 172.615 243.545C172.629 243.563 172.636 243.584 172.636 243.607C172.636 243.629 172.629 243.65 172.615 243.668C172.605 243.689 172.59 243.706 172.57 243.717C172.55 243.728 172.527 243.732 172.504 243.729C172.084 243.686 171.67 243.598 171.268 243.466V243.466ZM170.932 242.285C170.883 242.272 170.833 242.272 170.785 242.285C170.785 242.285 170.705 242.285 170.668 242.383C170.634 242.451 170.615 242.526 170.615 242.603C170.615 242.68 170.634 242.755 170.668 242.823C171.095 243.235 171.661 243.471 172.254 243.484C171.893 243.004 171.445 242.597 170.932 242.285V242.285Z" fill="#6EA4F4"/>
<path d="M172.486 243.723H172.431C172.058 243.301 171.513 241.979 171.776 241.538C171.821 241.464 171.89 241.407 171.971 241.378C172.053 241.349 172.142 241.35 172.223 241.379C172.309 241.397 172.39 241.433 172.461 241.484C172.531 241.536 172.59 241.602 172.633 241.679C173 242.291 172.633 243.637 172.633 243.705C172.627 243.724 172.616 243.741 172.601 243.754C172.586 243.767 172.567 243.775 172.547 243.778C172.534 243.774 172.521 243.767 172.511 243.757C172.5 243.748 172.492 243.736 172.486 243.723ZM172.235 241.563H172.186C172.045 241.514 172.009 241.593 171.99 241.618C171.825 241.893 172.131 242.842 172.468 243.374C172.633 242.85 172.633 242.288 172.468 241.764C172.445 241.717 172.412 241.674 172.372 241.639C172.332 241.605 172.286 241.578 172.235 241.563V241.563Z" fill="#6EA4F4"/>
<path opacity="0.2" d="M180.613 235.7L175.766 234.506L174.347 239.867L179.194 241.055L180.613 235.7Z" fill="black"/>
<path d="M209.947 246.036L204.989 246.624L203.918 235.932L208.876 235.345L209.947 246.036Z" fill="#E4897B"/>
<path d="M204.445 245.039L210.289 244.959C210.386 244.959 210.479 244.992 210.555 245.052C210.63 245.112 210.683 245.196 210.706 245.29L211.709 249.574C211.749 249.758 211.715 249.95 211.615 250.11C211.514 250.269 211.354 250.382 211.171 250.424C211.118 250.431 211.064 250.431 211.012 250.424C209.12 250.424 207.743 250.32 205.369 250.351C203.906 250.351 199.5 250.577 197.48 250.608C195.461 250.638 195.167 248.637 195.993 248.447C199.665 247.591 202.468 246.434 203.643 245.351C203.859 245.146 204.147 245.034 204.445 245.039Z" fill="#2E353A"/>
<path d="M202.866 245.902C202.538 245.934 202.209 245.852 201.936 245.669C201.845 245.597 201.775 245.503 201.732 245.395C201.689 245.288 201.675 245.172 201.691 245.057C201.687 244.99 201.703 244.924 201.737 244.867C201.771 244.809 201.821 244.762 201.88 244.733C202.413 244.451 203.98 245.388 204.151 245.492C204.171 245.502 204.187 245.518 204.197 245.538C204.206 245.557 204.21 245.58 204.206 245.602C204.204 245.625 204.195 245.647 204.179 245.665C204.164 245.682 204.143 245.695 204.12 245.7C203.711 245.816 203.29 245.883 202.866 245.902ZM202.137 244.916C202.087 244.91 202.035 244.921 201.991 244.947C201.96 244.947 201.923 244.99 201.917 245.081C201.909 245.158 201.919 245.235 201.947 245.306C201.974 245.377 202.019 245.441 202.076 245.492C202.619 245.728 203.232 245.75 203.79 245.553C203.285 245.236 202.724 245.02 202.137 244.916V244.916Z" fill="#6EA4F4"/>
<path d="M204.09 245.718H204.035C203.539 245.455 202.566 244.408 202.658 243.882C202.672 243.797 202.716 243.719 202.782 243.663C202.848 243.607 202.932 243.576 203.019 243.576C203.105 243.564 203.192 243.57 203.276 243.594C203.359 243.619 203.436 243.66 203.502 243.717C204.065 244.164 204.2 245.553 204.206 245.608C204.207 245.628 204.202 245.649 204.193 245.667C204.183 245.686 204.169 245.701 204.151 245.712L204.09 245.718ZM203.098 243.778H203.043C202.896 243.778 202.884 243.864 202.884 243.894C202.823 244.206 203.447 245.002 203.949 245.369C203.904 244.818 203.69 244.295 203.337 243.87C203.272 243.81 203.187 243.777 203.098 243.778V243.778Z" fill="#6EA4F4"/>
<path opacity="0.2" d="M208.876 235.345L203.918 235.932L204.475 241.446L209.432 240.859L208.876 235.345Z" fill="black"/>
<path d="M186.893 148.324C186.893 148.324 174.42 209.304 173.992 232.719L182.303 236.434C182.303 236.434 189.071 209.977 191.268 195.112C191.268 195.112 197.095 183.306 198.661 173.692C198.661 173.692 198.337 215.92 202.713 238.203L210.51 237.591C210.51 237.591 218.374 158.373 216.954 145.693L186.893 148.324Z" fill="#6EA4F4"/>
<path opacity="0.6" d="M186.893 148.324C186.893 148.324 174.42 209.304 173.992 232.719L182.303 236.434C182.303 236.434 189.071 209.977 191.268 195.112C191.268 195.112 197.095 183.306 198.661 173.692C198.661 173.692 198.337 215.92 202.713 238.203L210.51 237.591C210.51 237.591 218.374 158.373 216.954 145.693L186.893 148.324Z" fill="white"/>
<path opacity="0.2" d="M197.309 158.3C197.309 158.3 196.385 172.798 197.7 178.123C198.098 176.623 198.429 175.13 198.661 173.686L197.309 158.3Z" fill="black"/>
<path d="M201.721 239.971L212.425 238.38L212.095 235.418L200.969 236.875L201.721 239.971Z" fill="#6EA4F4"/>
<path d="M172.584 235.002L182.921 238.184L183.906 235.375L173.239 231.881L172.584 235.002Z" fill="#6EA4F4"/>
<path d="M186.905 100.417C186.905 100.417 188.227 97.8037 199.842 97.1305C211.458 96.4573 216.648 98.177 216.648 98.177C216.648 98.177 215.595 122.767 216.942 145.699C216.942 145.699 197.517 152.621 186.88 148.324C186.893 148.324 178.924 118.624 186.905 100.417Z" fill="#6EA4F4"/>
<path opacity="0.2" d="M204.004 96.9836C202.719 96.9836 201.336 97.0448 199.842 97.1305C198.943 97.1856 198.117 97.2468 197.339 97.3202C197.339 97.3202 198.331 99.1991 199.842 99.1991C200.665 99.2016 201.475 99.0006 202.202 98.6141C202.928 98.2276 203.547 97.6674 204.004 96.9836Z" fill="black"/>
<path opacity="0.3" d="M216.348 128.936L198.661 137.877C198.661 137.877 209.812 138.22 216.477 134.603C216.424 132.69 216.381 130.801 216.348 128.936Z" fill="black"/>
<path opacity="0.1" d="M199.616 104.016L205.901 131.978L204.506 135.595L199.616 104.016Z" fill="black"/>
<path d="M199.665 104.798L166.566 109.813L171.358 141.446L204.458 136.431L199.665 104.798Z" fill="#6EA4F4"/>
<path opacity="0.1" d="M199.665 104.798L166.566 109.813L171.358 141.446L204.458 136.431L199.665 104.798Z" fill="white"/>
<path d="M174.722 107.863L149.115 111.827L154.003 143.403L179.61 139.439L174.722 107.863Z" fill="#6EA4F4"/>
<path opacity="0.3" d="M174.722 107.863L149.115 111.827L154.003 143.403L179.61 139.439L174.722 107.863Z" fill="white"/>
<path opacity="0.3" d="M165.546 109.279L158.3 110.401L159.617 118.904L166.862 117.783L165.546 109.279Z" fill="white"/>
<path opacity="0.1" d="M192.581 105.101L185.335 106.223L186.652 114.726L193.897 113.605L192.581 105.101Z" fill="black"/>
<path opacity="0.2" d="M176.993 133.129L169.077 134.354L169.823 139.174L177.74 137.949L176.993 133.129Z" fill="white"/>
<path opacity="0.2" d="M189.359 137.627L188.545 136.549L185.919 137.112C185.78 137.559 185.726 138.029 185.76 138.496L189.432 137.933L189.359 137.627Z" fill="#2E353A"/>
<path d="M184.824 124.371C184.212 124.579 183.355 124.566 183.27 123.759C183.202 123.085 183.998 122.535 184.604 122.645C184.651 122.653 184.699 122.642 184.738 122.614C184.777 122.587 184.804 122.545 184.812 122.498C184.82 122.451 184.809 122.402 184.781 122.363C184.754 122.324 184.712 122.298 184.665 122.29C184.448 122.259 184.228 122.275 184.018 122.337C183.808 122.398 183.613 122.504 183.447 122.646C183.281 122.789 183.147 122.965 183.054 123.163C182.961 123.361 182.912 123.577 182.908 123.795C183.012 124.86 184.132 125.019 184.959 124.713C185.197 124.634 185.069 124.291 184.824 124.371Z" fill="white"/>
<path d="M185.436 121.005C185.381 120.778 185.02 120.815 185.069 121.041C185.334 122.208 185.593 123.373 185.846 124.536C185.895 124.762 186.256 124.732 186.207 124.499L185.436 121.005Z" fill="white"/>
<path d="M187.609 121.69C187.584 121.697 187.562 121.712 187.547 121.733C185.913 122.045 186.874 124.597 188.392 124.126C188.704 123.99 188.955 123.744 189.096 123.434C189.238 123.125 189.259 122.774 189.157 122.449C189.12 122.288 189.048 122.137 188.946 122.007C188.843 121.877 188.713 121.772 188.564 121.699C188.416 121.627 188.253 121.588 188.087 121.586C187.922 121.585 187.758 121.62 187.609 121.69ZM188.416 123.716C187.345 124.328 186.397 122.296 187.615 122.088C187.652 122.083 187.687 122.066 187.713 122.039C188.802 121.586 189.249 123.238 188.416 123.716Z" fill="white"/>
<path d="M190.662 120.723L189.995 120.839L189.885 120.117C189.849 119.885 189.487 119.921 189.524 120.154C189.561 120.387 189.598 120.65 189.64 120.901L188.98 121.011C188.753 121.054 188.784 121.415 189.016 121.378L189.696 121.262L190.099 123.887C190.136 124.114 190.497 124.077 190.461 123.844C190.326 122.963 190.185 122.082 190.051 121.2L190.705 121.084C190.944 121.047 190.895 120.68 190.662 120.723Z" fill="white"/>
<path d="M193.221 121.207C192.998 121.075 192.743 121.01 192.484 121.02C192.226 121.03 191.976 121.114 191.764 121.262C191.678 120.784 191.587 120.307 191.489 119.83C191.44 119.603 191.079 119.64 191.128 119.872C191.376 121.096 191.58 122.32 191.74 123.544C191.776 123.777 192.137 123.74 192.101 123.508C192.015 122.896 191.917 122.284 191.813 121.672C191.908 121.578 192.021 121.504 192.145 121.456C192.27 121.408 192.403 121.386 192.536 121.391C192.67 121.397 192.8 121.431 192.92 121.489C193.04 121.548 193.147 121.631 193.233 121.733C193.454 122.2 193.569 122.71 193.57 123.226C193.581 123.269 193.606 123.306 193.642 123.331C193.678 123.356 193.722 123.367 193.766 123.363C193.809 123.358 193.85 123.338 193.88 123.307C193.91 123.275 193.928 123.233 193.931 123.189C193.894 122.529 193.869 121.555 193.221 121.207Z" fill="white"/>
<path d="M194.763 120.509C194.616 120.587 194.487 120.696 194.385 120.827C194.283 120.959 194.21 121.111 194.171 121.273C194.132 121.435 194.129 121.604 194.16 121.767C194.191 121.931 194.257 122.086 194.353 122.223C194.432 122.388 194.545 122.536 194.683 122.655C194.822 122.775 194.985 122.865 195.16 122.919C195.335 122.973 195.52 122.99 195.702 122.97C195.885 122.949 196.061 122.89 196.219 122.798C196.428 122.694 196.299 122.351 196.091 122.455C195.921 122.576 195.715 122.636 195.507 122.624C195.299 122.612 195.101 122.528 194.946 122.388C194.828 122.279 194.728 122.15 194.653 122.008C195.191 122.051 196.177 121.941 196.201 121.353C196.232 120.601 195.369 120.27 194.763 120.509ZM195.791 121.409C195.736 121.494 195.485 121.549 195.387 121.58C195.11 121.669 194.815 121.686 194.53 121.629C194.512 121.531 194.513 121.43 194.534 121.332C194.555 121.234 194.596 121.142 194.653 121.06C194.741 120.95 194.86 120.871 194.994 120.831C195.129 120.792 195.273 120.795 195.405 120.839C195.583 120.882 195.962 121.176 195.791 121.409Z" fill="white"/>
<path d="M198.9 121.219C198.799 121.044 198.641 120.909 198.454 120.835C198.266 120.76 198.059 120.751 197.866 120.809C197.572 120.87 196.862 121.164 197.021 120.582C197.119 120.197 197.633 120.05 197.994 120.081C198.227 120.081 198.288 119.744 198.049 119.719C197.437 119.664 196.256 120.215 196.636 121.017C196.813 121.39 197.248 121.347 197.603 121.262C197.797 121.182 198.005 121.142 198.215 121.145C198.291 121.151 198.365 121.177 198.428 121.222C198.491 121.267 198.54 121.328 198.57 121.4C198.599 121.471 198.609 121.549 198.597 121.625C198.585 121.701 198.552 121.772 198.502 121.831C198.245 122.167 197.743 122.106 197.376 122.045C197.33 122.041 197.284 122.054 197.247 122.082C197.21 122.11 197.185 122.151 197.178 122.197C197.17 122.243 197.18 122.29 197.205 122.329C197.231 122.367 197.27 122.395 197.315 122.406C197.544 122.471 197.785 122.485 198.02 122.446C198.255 122.406 198.478 122.316 198.674 122.18C198.807 122.063 198.9 121.908 198.94 121.735C198.981 121.563 198.967 121.383 198.9 121.219Z" fill="white"/>
<path d="M204.549 131.323L193.857 133.93C193.039 133.405 192.061 133.188 191.097 133.318C189.592 133.587 185.779 136.641 185.92 137.094C186.06 137.547 189.591 140.313 190.246 140.111C190.901 139.909 195.02 136.996 195.02 136.996L205.204 136.146L204.549 131.323Z" fill="#E4897B"/>
<path d="M215.969 98.1403C215.969 98.1403 211.477 99.3337 212.113 107.669C212.395 111.292 212.535 115.16 212.609 118.379C212.653 120.533 212.084 122.655 210.968 124.497C209.852 126.339 208.235 127.826 206.305 128.783L197.529 132.37L198.661 137.878C198.661 137.878 211.415 136.709 215.901 133.122C220.387 129.536 221.948 121.88 221.22 115.533C220.204 106.721 220.54 97.7854 215.969 98.1403Z" fill="#6EA4F4"/>
<path opacity="0.1" d="M215.969 98.1403C215.969 98.1403 211.477 99.3337 212.113 107.669C212.395 111.292 212.535 115.16 212.609 118.379C212.653 120.533 212.084 122.655 210.968 124.497C209.852 126.339 208.235 127.826 206.305 128.783L197.529 132.37L198.661 137.878C198.661 137.878 211.415 136.709 215.901 133.122C220.387 129.536 221.948 121.88 221.22 115.533C220.204 106.721 220.54 97.7854 215.969 98.1403Z" fill="black"/>
<path d="M198.361 130.974L199.108 138.636L197.046 138.832L195.95 131.66L198.361 130.974Z" fill="#6EA4F4"/>
<path opacity="0.6" d="M198.361 130.974L199.108 138.636L197.046 138.832L195.95 131.66L198.361 130.974Z" fill="white"/>
<path opacity="0.4" d="M209.148 109.931L202.034 110.567L202.136 111.701L209.249 111.064L209.148 109.931Z" fill="white"/>
<path d="M199.842 97.1305L202.144 100.191L206.997 96.9898V96.696C207.008 96.4392 206.959 96.1833 206.852 95.9493C206.746 95.7153 206.586 95.5098 206.385 95.3496C206.153 95.2067 205.889 95.1226 205.617 95.1045C205.345 95.0864 205.073 95.1348 204.824 95.2456L199.842 97.1305Z" fill="#6EA4F4"/>
<path d="M196.605 97.3753L197.174 96.4328C197.89 95.5883 198.459 96.0228 198.459 96.0228L199.842 97.1305L197.823 100.191L196.605 97.3753Z" fill="#6EA4F4"/>
<path opacity="0.6" d="M199.842 97.1305L202.144 100.191L206.997 96.9898V96.696C207.008 96.4392 206.959 96.1833 206.852 95.9493C206.746 95.7153 206.586 95.5098 206.385 95.3496C206.153 95.2067 205.889 95.1226 205.617 95.1045C205.345 95.0864 205.073 95.1348 204.824 95.2456L199.842 97.1305Z" fill="white"/>
<path opacity="0.6" d="M196.605 97.3753L197.174 96.4328C197.89 95.5883 198.459 96.0228 198.459 96.0228L199.842 97.1305L197.823 100.191L196.605 97.3753Z" fill="white"/>
<path d="M207.86 81.8244C208.184 79.7314 206.734 79.4437 205.779 79.6947C204.824 79.9456 203.79 81.4633 203.79 81.4633C202.86 79.9578 202.333 76.145 202.333 76.145C201.151 76.7985 199.833 77.1684 198.483 77.2258C197.133 77.2831 195.788 77.0263 194.555 76.4755C194.079 77.7613 193.19 78.8526 192.027 79.5784C192.027 79.5784 190.301 78.7889 191.262 74.8231C192.352 70.3127 199.126 65.9491 205.95 70.4473C212.774 74.9455 208.643 83.2993 208.643 83.2993C208.643 83.2993 207.095 86.035 205.724 87.0631C205.84 86.2513 205.84 85.427 205.724 84.6151C206.28 84.3588 206.765 83.9707 207.137 83.4844C207.51 82.998 207.758 82.4282 207.86 81.8244Z" fill="#2E353A"/>
<path d="M193.747 75.3556C194.142 75.8377 194.599 76.2657 195.106 76.6285C195.622 76.9967 196.181 77.3008 196.77 77.5343C197.359 77.7662 197.977 77.9165 198.606 77.981C199.251 78.0422 199.9 78.0237 200.54 77.926C199.904 78.0747 199.253 78.1445 198.6 78.134C197.938 78.122 197.281 78.0169 196.648 77.8219C196.003 77.6321 195.386 77.3584 194.812 77.008C194.229 76.6589 193.696 76.2328 193.227 75.7411L193.747 75.3556Z" fill="#2E353A"/>
</svg>
